<svg width="1440" height="1024" viewBox="0 0 1440 1024" fill="none" xmlns="http://www.w3.org/2000/svg">
<path d="M-42.9281 877.58L-61.8277 896.165C-75.2351 909.349 -93.286 916.738 -112.09 916.738H-112.368C-118.763 916.738 -124.757 919.852 -128.432 925.084C-130.754 928.39 -132 932.33 -132 936.369V990.155C-132 1002.95 -129.12 1015.58 -123.573 1027.12C-116.094 1042.67 -104.074 1055.58 -89.1002 1064.16L-22.4479 1102.32C-5.65498 1111.94 13.3602 1117 32.7117 1117H195.994H281.518C290.137 1117 298.722 1115.93 307.076 1113.8C327.543 1108.6 345.934 1097.27 359.793 1081.34L365.754 1074.49L370.392 1067.99C378.408 1056.76 384.259 1044.13 387.645 1030.75L389.606 1023.01C391.86 1014.1 393 1004.95 393 995.765V995.322C393 980.379 389.983 965.59 384.129 951.841L382.521 948.064L371.88 928.182C367.81 920.578 362.868 913.475 357.154 907.016L347.94 896.599L318.334 868.318C311.569 861.856 303.802 856.533 295.335 852.555C286.458 848.385 278.353 842.737 271.367 835.852L254.677 819.403L218 783.602L191.524 758.983C187.523 755.263 183.254 751.843 178.749 748.752L156.174 733.257L153.139 731.059C136.039 718.67 115.463 712 94.3473 712C81.3291 712 68.5657 715.609 57.4753 722.426L56.261 723.173C45.497 729.79 36.567 739.003 30.2904 749.969L28.3293 753.395L3.17963 807.097L-3.01328 823.626C-8.59969 838.537 -17.3287 852.071 -28.6078 863.31L-42.9281 877.58Z" fill="#D3E4EB" stroke="#D3E4EB" stroke-width="3"/>
<path d="M1361.61 511.286L1401.05 487.192C1402.24 486.47 1403.48 485.845 1404.76 485.323C1421.59 478.481 1440 490.868 1440 509.041V881.914C1440 888.589 1434.59 894 1427.91 894H1402.67C1399.63 894 1396.61 893.63 1393.67 892.899L1363.8 885.482C1354.24 883.107 1344.87 880.022 1335.77 876.254C1320.61 869.98 1306.3 861.85 1293.14 852.05L1292.67 851.7L1287.28 848.195C1273.42 839.192 1261.3 827.754 1251.52 814.436C1241.17 798.41 1233.25 780.939 1228.01 762.593L1224.42 749.979L1219.79 719.511C1218.6 711.64 1218.14 703.611 1218.43 695.655C1218.99 679.727 1222.54 663.917 1228.89 649.298C1233.55 638.584 1239.65 628.56 1247.04 619.51L1266.32 595.886L1292.67 568.693L1326.46 536.464L1361.61 511.286Z" fill="#DCD0D0" stroke="#DCD0D0" stroke-width="3"/>
<path d="M1461.33 538.763L1481.12 521.083C1484.07 518.453 1487.87 517 1491.82 517C1500.31 517 1507.33 523.598 1507.85 532.065L1535.21 971.425C1535.71 979.424 1532.42 987.191 1526.33 992.4C1515.61 1001.57 1499.49 1000.3 1490.34 989.571L1488.63 987.569C1486.68 985.289 1484.39 983.336 1481.83 981.78L1440.89 956.924L1400.01 932.829L1364.84 911.573C1360 908.649 1354.94 906.098 1349.71 903.944L1319.84 891.635L1285.25 879.976L1258.53 867.54L1238.82 857.796C1233.1 854.971 1227.65 851.64 1222.53 847.842L1215.75 842.815C1212.84 840.654 1210.22 838.123 1207.95 835.287C1202.5 828.46 1199.32 820.104 1198.84 811.381L1198 796.033V792.1C1198 780.289 1199.89 768.554 1203.58 757.337L1206.82 747.53C1208.8 741.532 1211.28 735.714 1214.25 730.139L1225.51 708.981L1234.46 694.821C1238.96 687.703 1244.26 681.12 1250.24 675.199L1258.99 666.548C1264.95 660.657 1271.56 655.459 1278.68 651.054L1299.4 638.251L1344.2 614.934L1377.22 600.166L1400.01 586.175L1423.6 570.63L1440.89 555.863L1461.33 538.763Z" stroke="#808080" stroke-width="3"/>
<path d="M289.641 76.0978L268.616 30.7096C267.491 28.2816 266.579 25.7609 265.889 23.1757C260.9 4.48526 244.855 -9.14431 225.601 -11.024L58.9206 -27.2966C53.177 -27.8573 38.7002 -27.3691 27.7389 -26.8376C22.0893 -26.5636 16.4875 -25.723 10.9846 -24.4149L-1.5853 -21.4269C-17.7534 -17.5836 -31.8451 -7.71453 -40.9838 6.16574C-46.1396 13.9966 -49.5468 22.8468 -50.9732 32.1134L-68.043 143.002C-68.6623 147.025 -68.5209 151.129 -67.6262 155.099C-65.2535 165.63 -57.8109 174.297 -47.7602 178.234L-45.7418 179.025L-21.8771 188.803L-2.45784 196.019L35.7677 209.86L69.7021 219.557L97.1986 226.378C102.438 227.678 107.766 228.594 113.138 229.118L133.64 231.12L149.636 232.681C154.912 233.197 160.219 233.333 165.515 233.09L193.93 231.784C199.324 231.537 204.693 230.896 209.994 229.866L234.853 225.04L258.385 218.073C263.413 216.585 268.329 214.742 273.097 212.558L287.002 206.189L291.509 203.469C304.062 195.893 316.131 186.01 318.94 171.621C319.299 169.779 319.592 167.826 319.793 165.764C321.542 147.845 319.442 155.621 319.956 150.35C320.166 148.204 319.581 144.692 318.775 141.206C317.41 135.304 314.934 129.74 312.139 124.366L307.302 115.065L298.93 97.7541L289.641 76.0978Z" fill="#6C91A3" stroke="#6C91A3"/>
<path d="M179.25 48.9686L167.648 44.9932C156.067 41.0251 143.91 39 131.668 39H62.6844C48.7533 39 34.9466 41.6225 21.9857 46.7304L-11.8748 60.0748C-26.6022 65.8789 -38.1475 77.6998 -43.6027 92.5599C-45.85 98.6814 -47 105.151 -47 111.672V273.949C-47 292.049 -28.5851 304.322 -11.8795 297.357L-7.88789 295.692L24.0404 283.613L47.9865 273.146L61.9767 268.235C70.7083 265.17 79.789 263.209 89.0074 262.397L98.916 261.525C105.393 260.955 111.908 260.955 118.384 261.525L142.175 263.619L186.076 266.571L215.804 269.515C225.74 270.499 235.763 270.138 245.602 268.442L246.369 268.31C257.199 266.442 267.692 262.977 277.504 258.028L281.861 255.83L288.548 251.332C293.618 247.922 297.963 243.541 301.332 238.444C306.333 230.874 309 222.001 309 212.929V202.679C309 189.987 305.899 177.486 299.967 166.265L296.229 159.192L286.757 143.266C283.499 137.788 279.775 132.6 275.627 127.761L262.704 112.686L253.32 100.851C246.837 92.6756 239.234 85.4549 230.735 79.4023L216.408 69.1991L204.141 61.1543C196.385 56.0685 188.023 51.9747 179.25 48.9686Z" stroke="#E8EAEC" stroke-width="3"/>
<g filter="url(#filter0_i_38_26)">
<path d="M468.539 126.238C469.783 99.678 466.255 52.6872 447.734 -1.23596C437.216 -31.8602 410.16 -53.0104 378.816 -61.1341L171.124 -114.963C156.717 -118.696 141.707 -119.495 126.985 -117.311L35.1464 -103.685C-4.88385 -97.7461 -38.5098 -70.4921 -52.6089 -32.5591L-107.064 113.951C-112.264 127.94 -114.589 142.833 -113.901 157.742L-103.288 387.626C-103.015 393.529 -102.272 399.401 -101.064 405.186L-94.6403 435.964C-90.4451 456.064 -80.7567 474.606 -66.6526 489.529L-53.597 503.343C-46.2818 511.083 -37.4546 517.237 -27.6629 521.425C-18.1245 525.505 -7.8663 527.635 2.5077 527.689L9.93612 527.728C23.0791 527.797 36.1298 525.531 48.4804 521.036L54.0238 519.019C60.216 516.765 66.1952 513.965 71.8906 510.651L86.7726 501.99C95.3074 497.024 103.141 490.94 110.067 483.902L126.277 467.426C131.385 462.235 135.969 456.553 139.964 450.464L155.984 426.044L182.134 387.677L203.129 359.04C210.178 349.426 218.729 341.01 228.454 334.116L245.677 321.907C251.353 317.884 257.394 314.403 263.721 311.51L297.332 296.145L350.068 269.901L382.156 251.516C387.16 248.649 391.932 245.397 396.43 241.789L416.474 225.71C425.412 218.541 433.28 210.094 438.933 200.129C446.055 187.574 454.936 170.082 463.193 149.446C466.165 142.019 468.164 134.228 468.539 126.238Z" fill="#96C0D0"/>
</g>
<path d="M468.539 126.238C469.783 99.678 466.255 52.6872 447.734 -1.23596C437.216 -31.8602 410.16 -53.0104 378.816 -61.1341L171.124 -114.963C156.717 -118.696 141.707 -119.495 126.985 -117.311L35.1464 -103.685C-4.88385 -97.7461 -38.5098 -70.4921 -52.6089 -32.5591L-107.064 113.951C-112.264 127.94 -114.589 142.833 -113.901 157.742L-103.288 387.626C-103.015 393.529 -102.272 399.401 -101.064 405.186L-94.6403 435.964C-90.4451 456.064 -80.7567 474.606 -66.6526 489.529L-53.597 503.343C-46.2818 511.083 -37.4546 517.237 -27.6629 521.425C-18.1245 525.505 -7.8663 527.635 2.5077 527.689L9.93612 527.728C23.0791 527.797 36.1298 525.531 48.4804 521.036L54.0238 519.019C60.216 516.765 66.1952 513.965 71.8906 510.651L86.7726 501.99C95.3074 497.024 103.141 490.94 110.067 483.902L126.277 467.426C131.385 462.235 135.969 456.553 139.964 450.464L155.984 426.044L182.134 387.677L203.129 359.04C210.178 349.426 218.729 341.01 228.454 334.116L245.677 321.907C251.353 317.884 257.394 314.403 263.721 311.51L297.332 296.145L350.068 269.901L382.156 251.516C387.16 248.649 391.932 245.397 396.43 241.789L416.474 225.71C425.412 218.541 433.28 210.094 438.933 200.129C446.055 187.574 454.936 170.082 463.193 149.446C466.165 142.019 468.164 134.228 468.539 126.238Z" stroke="#96C0D0" stroke-width="3"/>
<defs>
<filter id="filter0_i_38_26" x="-115.519" y="-120.013" width="585.781" height="653.242" filterUnits="userSpaceOnUse" color-interpolation-filters="sRGB">
<feFlood flood-opacity="0" result="BackgroundImageFix"/>
<feBlend mode="normal" in="SourceGraphic" in2="BackgroundImageFix" result="shape"/>
<feColorMatrix in="SourceAlpha" type="matrix" values="0 0 0 0 0 0 0 0 0 0 0 0 0 0 0 0 0 0 127 0" result="hardAlpha"/>
<feOffset dy="4"/>
<feGaussianBlur stdDeviation="2"/>
<feComposite in2="hardAlpha" operator="arithmetic" k2="-1" k3="1"/>
<feColorMatrix type="matrix" values="0 0 0 0 0 0 0 0 0 0 0 0 0 0 0 0 0 0 0.25 0"/>
<feBlend mode="normal" in2="shape" result="effect1_innerShadow_38_26"/>
</filter>
</defs>
</svg>
