<svg width="390" height="844" viewBox="0 0 390 844" fill="none" xmlns="http://www.w3.org/2000/svg">
<path d="M31.6995 516.268L22 511.5C8.29773 502.78 0 487.665 0 471.423V66.2341C0 62.4431 0.69021 58.6837 2.03687 55.1398C6.5493 43.265 17.8045 35.3063 30.5043 35.0102L365.491 27.1984C371.151 27.0664 376.811 27.464 382.397 28.386L407.171 32.4749C418.755 34.3868 428.84 41.4645 434.577 51.7081C437.805 57.4729 439.5 63.9695 439.5 70.5766V359C439.5 371.426 429.426 381.5 417 381.5H416H393.5H388.275C378.797 381.5 369.359 382.714 360.189 385.112L351.459 387.395C344.834 389.128 338.383 391.47 332.19 394.391L315 402.5L278.5 426L247.5 450L216 474L188.5 492.5L166 505.5L140 516L126.505 520.748C117.539 523.903 108.205 525.893 98.7313 526.67L90.602 527.336C85.2079 527.778 79.7887 527.825 74.3877 527.477L73.5173 527.42C58.9813 526.483 44.772 522.693 31.6995 516.268Z" fill="#DCD0D0" stroke="#DCD0D0" stroke-width="3"/>
<g filter="url(#filter0_i_62_26)">
<path d="M318.864 64.1694C319.278 46.7745 316.992 19.5023 307.715 -12.0189C298.585 -43.0401 271.188 -64.0545 239.872 -72.1159L106.664 -106.406C92.3482 -110.092 77.4405 -110.88 62.8159 -108.726L18.6893 -102.226C-21.2998 -96.3351 -54.9257 -69.1723 -69.0929 -31.3157L-100.525 52.6755C-105.79 66.7437 -108.145 81.7341 -107.447 96.7389L-100.078 255.118C-99.8018 261.061 -99.048 266.971 -97.8243 272.793L-94.7073 287.622C-90.9309 305.588 -82.2271 322.147 -69.5709 335.446L-63.6109 341.708C-58.2297 347.362 -51.7471 351.854 -44.5628 354.906C-37.5913 357.867 -30.1004 359.413 -22.526 359.452L-17.295 359.48C-7.50944 359.531 2.20838 357.855 11.4115 354.529L13.8691 353.641C19.3092 351.675 24.5644 349.231 29.5728 346.336L35.7657 342.757C44.3015 337.825 52.142 331.777 59.0805 324.774L66.0408 317.748C71.1743 312.567 75.7846 306.892 79.8048 300.806L89.8881 285.541L109.035 257.641L121.511 240.741C128.591 231.151 137.169 222.764 146.916 215.903L153.287 211.417C158.956 207.426 164.987 203.975 171.3 201.109L193.385 191.083L232 172L253.489 159.773C258.489 156.929 263.26 153.7 267.759 150.116L276.968 142.78C285.935 135.636 293.86 127.21 299.368 117.155C303.739 109.175 308.755 99.0801 313.564 87.5083C316.653 80.0763 318.673 72.2152 318.864 64.1694Z" fill="#96C0D0"/>
</g>
<path d="M318.864 64.1694C319.278 46.7745 316.992 19.5023 307.715 -12.0189C298.585 -43.0401 271.188 -64.0545 239.872 -72.1159L106.664 -106.406C92.3482 -110.092 77.4405 -110.88 62.8159 -108.726L18.6893 -102.226C-21.2998 -96.3351 -54.9257 -69.1723 -69.0929 -31.3157L-100.525 52.6755C-105.79 66.7437 -108.145 81.7341 -107.447 96.7389L-100.078 255.118C-99.8018 261.061 -99.048 266.971 -97.8243 272.793L-94.7073 287.622C-90.9309 305.588 -82.2271 322.147 -69.5709 335.446L-63.6109 341.708C-58.2297 347.362 -51.7471 351.854 -44.5628 354.906C-37.5913 357.867 -30.1004 359.413 -22.526 359.452L-17.295 359.48C-7.50944 359.531 2.20838 357.855 11.4115 354.529L13.8691 353.641C19.3092 351.675 24.5644 349.231 29.5728 346.336L35.7657 342.757C44.3015 337.825 52.142 331.777 59.0805 324.774L66.0408 317.748C71.1743 312.567 75.7846 306.892 79.8048 300.806L89.8881 285.541L109.035 257.641L121.511 240.741C128.591 231.151 137.169 222.764 146.916 215.903L153.287 211.417C158.956 207.426 164.987 203.975 171.3 201.109L193.385 191.083L232 172L253.489 159.773C258.489 156.929 263.26 153.7 267.759 150.116L276.968 142.78C285.935 135.636 293.86 127.21 299.368 117.155C303.739 109.175 308.755 99.0801 313.564 87.5083C316.653 80.0763 318.673 72.2152 318.864 64.1694Z" stroke="#96C0D0" stroke-width="3"/>
<path d="M143.708 66.9251L128.017 28.3944C127.251 26.5128 126.637 24.5726 126.182 22.5926C122.533 6.72003 109.163 -5.04321 92.9539 -6.6257L-30.7643 -18.704C-35.0337 -19.1208 -45.6743 -18.6136 -53.9411 -18.0809C-58.5871 -17.7815 -63.1806 -16.9638 -67.6688 -15.7268L-74.5038 -13.8431C-88.2903 -10.0436 -100.077 -1.06719 -107.405 11.2131C-111.123 17.4434 -113.582 24.3424 -114.645 31.5194L-128.797 127.146C-129.259 130.269 -129.19 133.452 -128.594 136.552C-126.835 145.692 -120.65 153.373 -112.09 157.031L-94.0358 165.111L-79.338 171.059L-50.4032 182.458L-24.6943 190.384L-6.63197 195.188C-0.81301 196.736 5.12223 197.807 11.115 198.392L23.8033 199.631L33.1219 200.541C39.0075 201.116 44.9296 201.219 50.8316 200.85L66.8418 199.849C72.7932 199.477 78.705 198.626 84.5197 197.305L100.784 193.608L116.541 188.247C121.832 186.447 126.98 184.249 131.94 181.674L140.583 177.186C152.47 169.108 163.783 158.8 165.638 144.549C165.719 143.927 165.791 143.293 165.854 142.647C167.338 127.448 165.675 134.055 166.111 129.585C166.271 127.948 165.952 125.383 165.463 122.74C164.429 117.157 162.326 111.847 159.959 106.687L156.797 99.793L150.582 85.1964L143.708 66.9251Z" fill="#6C91A3" stroke="#6C91A3"/>
<path d="M81 82.4646L75.7624 78.7488C69.2822 74.1515 62.2267 70.4243 54.7767 67.6627C44.6729 63.9175 33.9832 62 23.2076 62H-12.1322C-22.9325 62 -33.6214 64.1835 -43.5565 68.4193L-60.8203 75.7796C-70.7978 80.0335 -78.4919 88.3347 -81.9774 98.6059C-83.3167 102.553 -84 106.693 -84 110.861V221.215C-84 233.308 -71.5187 241.37 -60.495 236.398L-59.5 235.949L-39.5 227.763L-24.5 220.67L-19.0561 218.603C-11.3867 215.691 -3.3612 213.82 4.80564 213.043C10.5888 212.492 16.4112 212.492 22.1944 213.043L34.5 214.215L62 216.215L80.2928 218.175C86.7299 218.864 93.2331 218.612 99.5973 217.425C106.489 216.139 113.135 213.774 119.289 210.415L122 208.936L125.853 206.132C129.251 203.66 132.127 200.541 134.318 196.955C137.38 191.942 139 186.182 139 180.307V172.918C139 164.3 137.033 155.796 133.25 148.053L131 143.449L126.488 135.241C123.501 129.808 120.065 124.635 116.214 119.776L110 111.934L107.309 108.262C101.134 99.8374 93.8008 92.3267 85.5266 85.952L81 82.4646Z" stroke="white" stroke-width="3"/>
<path d="M396.5 530L409.091 518.627C410.963 516.936 413.397 516 415.92 516C421.303 516 425.758 520.189 426.089 525.562L443.506 808.483C443.817 813.535 441.753 818.443 437.925 821.754C431.087 827.668 420.736 826.854 414.907 819.945L413.853 818.696C412.625 817.241 411.174 815.993 409.552 814.997L383.5 799L357.5 783.5L337.796 771.459C332.939 768.491 327.861 765.901 322.607 763.711L306.5 757L284.5 749.5L267.5 741.5L254.989 735.244C251.337 733.419 247.857 731.268 244.591 728.818L240.318 725.614C238.447 724.211 236.766 722.571 235.317 720.735C231.857 716.352 229.838 711.007 229.537 705.432L229 695.5C229 686.225 230.465 677.008 233.34 668.19L233.89 666.505C235.627 661.178 237.812 656.008 240.421 651.05L246.5 639.5L250.129 633.694C254.363 626.92 259.352 620.648 265 615C270.648 609.352 276.92 604.363 283.694 600.129L293.5 594L322 579L343 569.5L357.5 560.5L372.5 550.5L383.5 541L396.5 530Z" stroke="#6C91A3" stroke-width="3"/>
<path d="M367.909 579L400.034 566.5C414.698 562.703 429 573.773 429 588.921V763C429 766.314 426.314 769 423 769H398.728C397.144 769 395.562 768.876 393.997 768.628L358.429 763L346.902 759.96C335.652 756.993 324.701 752.989 314.191 748L307.757 745.337C298.415 741.471 289.758 736.123 282.119 729.5L280.356 727.761C273.481 720.98 267.928 712.977 263.983 704.163C261.999 699.731 260.434 695.122 259.309 690.398L257.434 682.525C256.483 678.529 256.116 674.417 256.344 670.316C256.773 662.586 259.305 655.119 263.666 648.722L265.299 646.326C268.383 641.803 272.15 637.785 276.465 634.416L293.652 621L314.191 607.5L340.524 591.5L367.909 579Z" fill="#DCD0D0" stroke="#DCD0D0" stroke-width="3"/>
<path d="M2.09381 750L-6.66394 757.955C-13.4255 764.097 -22.2326 767.5 -31.3673 767.5H-31.9496C-34.777 767.5 -37.442 768.821 -39.1535 771.072C-40.3514 772.647 -41 774.571 -41 776.55V799.825C-41 805.853 -39.5464 811.792 -36.7626 817.138C-33.249 823.886 -27.7656 829.405 -21.0407 832.962L0.0488358 844.118C16.0411 852.578 33.8588 857 51.9507 857H117.687H159.266C163.304 857 167.329 856.534 171.26 855.611C181.289 853.256 190.403 848 197.465 840.5L199.818 838L200.952 836.532C205.56 830.568 208.955 823.76 210.947 816.492L211.342 815.05C212.442 811.035 213 806.89 213 802.727C213 795.989 211.54 789.331 208.719 783.212L207.93 781.5L206.066 778.282C201.916 771.12 196.925 764.479 191.2 758.5L176.987 745.959C173.639 743.005 169.848 740.595 165.752 738.817C161.453 736.952 157.491 734.39 154.026 731.235L146.078 724L128.333 708L118.717 699.739C114.655 696.251 110.347 693.061 105.826 690.194L98.4212 685.5L97.2871 684.741C88.7715 679.042 78.7556 676 68.509 676C62.1954 676 55.9227 677.677 50.4325 680.795C45.0383 683.857 40.4335 688.263 37.1662 693.536L36.5689 694.5L24.4012 718.5C19.7274 730.023 12.5581 740.368 3.40889 748.79L2.09381 750Z" fill="#D3E4EB" stroke="#D3E4EB" stroke-width="3"/>
<defs>
<filter id="filter0_i_62_26" x="-109.067" y="-111.411" width="429.476" height="476.392" filterUnits="userSpaceOnUse" color-interpolation-filters="sRGB">
<feFlood flood-opacity="0" result="BackgroundImageFix"/>
<feBlend mode="normal" in="SourceGraphic" in2="BackgroundImageFix" result="shape"/>
<feColorMatrix in="SourceAlpha" type="matrix" values="0 0 0 0 0 0 0 0 0 0 0 0 0 0 0 0 0 0 127 0" result="hardAlpha"/>
<feOffset dy="4"/>
<feGaussianBlur stdDeviation="2"/>
<feComposite in2="hardAlpha" operator="arithmetic" k2="-1" k3="1"/>
<feColorMatrix type="matrix" values="0 0 0 0 0 0 0 0 0 0 0 0 0 0 0 0 0 0 0.25 0"/>
<feBlend mode="normal" in2="shape" result="effect1_innerShadow_62_26"/>
</filter>
</defs>
</svg>
